<?xml version="1.0" standalone="no"?>
<!DOCTYPE svg PUBLIC "-//W3C//DTD SVG 1.1//EN" "http://www.w3.org/Graphics/SVG/1.1/DTD/svg11.dtd" >
<svg xmlns="http://www.w3.org/2000/svg" xmlns:xlink="http://www.w3.org/1999/xlink" version="1.1">
<metadata></metadata>
<defs>
<font id="8_bit_1_6regular" horiz-adv-x="1534" >
<font-face units-per-em="2048" ascent="1638" descent="-410" />
<missing-glyph horiz-adv-x="1536" />
<glyph horiz-adv-x="0" />
<glyph horiz-adv-x="682" />
<glyph unicode=" "  horiz-adv-x="1536" />
<glyph unicode="&#x09;" horiz-adv-x="1536" />
<glyph unicode="&#xa0;" horiz-adv-x="1536" />
<glyph unicode="!" horiz-adv-x="510" d="M0 0v256h256v-256h-256zM0 512v768h256v-768h-256z" />
<glyph unicode="&#x22;" horiz-adv-x="1022" d="M0 768v512h256v-512h-256zM512 768v512h256v-512h-256z" />
<glyph unicode="#" horiz-adv-x="1536" d="M0 256v256h256v256h-256v256h256v256h256v-256h256v256h256v-256h256v-256h-256v-256h256v-256h-256v-256h-256v256h-256v-256h-256v256h-256zM512 512h256v256h-256v-256z" />
<glyph unicode="$" horiz-adv-x="1536" d="M0 0v256h512v256h-256v256h-256v256h256v256h1024v-256h-512v-256h256v-256h256v-256h-256v-256h-1024zM256 768h256v256h-256v-256zM768 256h256v256h-256v-256z" />
<glyph unicode="%" d="M0 0v256h256v256h256v256h-512v512h512v-512h256v256h256v256h256v-256h-256v-256h-256v-256h512v-512h-512v512h-256v-256h-256v-256h-256z" />
<glyph unicode="&#x26;" horiz-adv-x="1536" d="M0 256v256h256v256h-256v256h256v256h512v-256h256v-256h256v-256h-256v-256h256v-256h-1024v256h-256zM256 256h512v256h-512v-256zM256 768h512v256h-512v-256z" />
<glyph unicode="'" horiz-adv-x="510" d="M0 768v512h256v-512h-256z" />
<glyph unicode="(" horiz-adv-x="1022" d="M0 256v768h256v256h512v-256h-512v-768h512v-256h-512v256h-256z" />
<glyph unicode=")" horiz-adv-x="1022" d="M0 0v256h512v768h-512v256h512v-256h256v-768h-256v-256h-512z" />
<glyph unicode="*" horiz-adv-x="1024" d="M0 256v256h256v256h-256v256h256v-256h256v256h256v-256h-256v-256h256v-256h-256v256h-256v-256h-256z" />
<glyph unicode="+" d="M0 512v256h512v512h256v-512h512v-256h-512v-512h-256v512h-512z" />
<glyph unicode="," horiz-adv-x="510" d="M0 0v512h256v-512h-256z" />
<glyph unicode="-" horiz-adv-x="1536" d="M0 512v256h1280v-256h-1280z" />
<glyph unicode="." horiz-adv-x="512" d="M0 0v256h256v-256h-256z" />
<glyph unicode="/" horiz-adv-x="1536" d="M0 0v256h256v256h256v256h256v256h256v256h256v-256h-256v-256h-256v-256h-256v-256h-256v-256h-256z" />
<glyph unicode="0" d="M0 256v768h256v256h768v-256h256v-768h-256v-256h-768v256h-256zM256 256h768v768h-768v-768z" />
<glyph unicode="1" d="M0 0v256h512v768h-256v-256h-256v256h256v256h512v-1024h512v-256h-1280z" />
<glyph unicode="2" horiz-adv-x="1536" d="M0 0v256h256v256h256v256h256v256h-512v-256h-256v256h256v256h512v-256h256v-256h-256v-256h-256v-256h768v-256h-1280z" />
<glyph unicode="3" horiz-adv-x="1536" d="M0 256v256h256v-256h768v256h-512v256h512v256h-768v-256h-256v256h256v256h768v-256h256v-256h-256v-256h256v-256h-256v-256h-768v256h-256z" />
<glyph unicode="4" d="M0 256v256h256v256h256v256h256v256h256v-768h256v-256h-256v-256h-256v256h-768zM512 512h256v256h-256v-256z" />
<glyph unicode="5" d="M0 256v256h256v256h-256v512h1280v-256h-1024v-256h768v-256h256v-256h-256v-256h-768v256h-256zM256 256h768v256h-768v-256z" />
<glyph unicode="6" d="M0 256v768h256v256h768v-256h-768v-256h768v-256h256v-256h-256v-256h-768v256h-256zM256 256h768v256h-768v-256z" />
<glyph unicode="7" d="M0 1024v256h1280v-512h-256v-256h-256v-256h-256v-256h-256v256h256v256h256v256h256v256h-1024z" />
<glyph unicode="8" horiz-adv-x="1536" d="M0 256v256h256v256h-256v256h256v256h768v-256h256v-256h-256v-256h256v-256h-256v-256h-768v256h-256zM256 256h768v256h-768v-256zM256 768h768v256h-768v-256z" />
<glyph unicode="9" d="M0 768v256h256v256h768v-256h256v-768h-256v-256h-768v256h768v256h-768v256h-256zM256 768h768v256h-768v-256z" />
<glyph unicode=":" horiz-adv-x="512" d="M0 256v256h256v-256h-256zM0 768v256h256v-256h-256z" />
<glyph unicode=";" horiz-adv-x="510" d="M0 0v512h256v-512h-256zM0 768v256h256v-256h-256z" />
<glyph unicode="&#x3c;" horiz-adv-x="1024" d="M0 512v256h256v256h256v256h256v-256h-256v-256h-256v-256h256v-256h256v-256h-256v256h-256v256h-256z" />
<glyph unicode="=" horiz-adv-x="1536" d="M0 256v256h1280v-256h-1280zM0 768v256h1280v-256h-1280z" />
<glyph unicode="&#x3e;" horiz-adv-x="1024" d="M0 0v256h256v256h256v256h-256v256h-256v256h256v-256h256v-256h256v-256h-256v-256h-256v-256h-256z" />
<glyph unicode="?" horiz-adv-x="1536" d="M0 768v256h256v256h768v-256h256v-256h-256v-256h-512v256h512v256h-768v-256h-256zM512 0v256h256v-256h-256z" />
<glyph unicode="@" d="M0 256v768h256v256h768v-256h256v-512h-768v256h512v256h-768v-768h1024v-256h-1024v256h-256z" />
<glyph unicode="A" d="M0 0v768h256v256h256v256h256v-256h256v-256h256v-768h-256v512h-768v-512h-256zM512 768h256v256h-256v-256z" />
<glyph unicode="B" d="M0 0v1280h1024v-256h256v-256h-256v-256h256v-256h-256v-256h-1024zM256 256h768v256h-768v-256zM256 768h768v256h-768v-256z" />
<glyph unicode="C" d="M0 256v768h256v256h768v-256h256v-256h-256v256h-768v-768h768v256h256v-256h-256v-256h-768v256h-256z" />
<glyph unicode="D" d="M0 0v1280h1024v-256h256v-768h-256v-256h-1024zM256 256h768v768h-768v-768z" />
<glyph unicode="E" d="M0 0v1280h1280v-256h-1024v-256h512v-256h-512v-256h1024v-256h-1280z" />
<glyph unicode="F" d="M0 0v1280h1280v-256h-1024v-256h512v-256h-512v-512h-256z" />
<glyph unicode="G" d="M0 256v768h256v256h768v-256h256v-768h-256v-256h-768v256h-256zM256 256h768v256h-512v256h512v256h-768v-768z" />
<glyph unicode="H" d="M0 0v1280h256v-512h768v512h256v-1280h-256v512h-768v-512h-256z" />
<glyph unicode="I" d="M0 0v256h512v768h-512v256h1280v-256h-512v-768h512v-256h-1280z" />
<glyph unicode="J" d="M0 256v512h256v-512h768v1024h256v-1024h-256v-256h-768v256h-256z" />
<glyph unicode="K" d="M0 0v1280h256v-512h512v256h256v256h256v-256h-256v-256h-256v-256h256v-256h256v-256h-256v256h-256v256h-512v-512h-256z" />
<glyph unicode="L" d="M0 0v1280h256v-1024h1024v-256h-1280z" />
<glyph unicode="M" d="M0 0v1280h256v-256h256v-256h256v256h256v256h256v-1280h-256v768h-256v-256h-256v256h-256v-768h-256z" />
<glyph unicode="N" d="M0 0v1280h256v-256h256v-256h256v-256h256v768h256v-1280h-256v256h-256v256h-256v256h-256v-768h-256z" />
<glyph unicode="O" d="M0 256v768h256v256h768v-256h256v-768h-256v-256h-768v256h-256zM256 256h768v768h-768v-768z" />
<glyph unicode="P" d="M0 0v1280h1024v-256h256v-256h-256v-256h-768v-512h-256zM256 768h768v256h-768v-256z" />
<glyph unicode="Q" d="M0 256v768h256v256h768v-256h256v-1024h-1024v256h-256zM256 256h512v256h256v512h-768v-768z" />
<glyph unicode="R" d="M0 0v1280h1024v-256h256v-256h-256v-512h256v-256h-256v256h-256v256h-512v-512h-256zM256 768h768v256h-768v-256z" />
<glyph unicode="S" horiz-adv-x="1536" d="M0 256v256h256v256h-256v256h256v256h768v-256h256v-256h-256v-256h256v-256h-256v-256h-768v256h-256zM256 256h768v256h-768v-256zM256 768h768v256h-768v-256z" />
<glyph unicode="T" d="M0 1024v256h1280v-256h-512v-1024h-256v1024h-512z" />
<glyph unicode="U" d="M0 256v1024h256v-1024h768v1024h256v-1024h-256v-256h-768v256h-256z" />
<glyph unicode="V" d="M0 512v768h256v-768h256v-256h256v256h256v768h256v-768h-256v-256h-256v-256h-256v256h-256v256h-256z" />
<glyph unicode="W" d="M0 0v1280h256v-768h256v256h256v-256h256v768h256v-1280h-256v256h-256v256h-256v-256h-256v-256h-256z" />
<glyph unicode="X" horiz-adv-x="1536" d="M0 0v256h256v256h256v256h-256v256h-256v256h256v-256h256v-256h256v256h256v256h256v-256h-256v-256h-256v-256h256v-256h256v-256h-256v256h-256v256h-256v-256h-256v-256h-256z" />
<glyph unicode="Y" d="M0 1024v256h256v-256h256v-256h256v256h256v256h256v-256h-256v-256h-256v-768h-256v768h-256v256h-256z" />
<glyph unicode="Z" horiz-adv-x="1536" d="M0 0v256h256v256h256v256h256v256h-768v256h1280v-256h-256v-256h-256v-256h-256v-256h768v-256h-1280z" />
<glyph unicode="[" horiz-adv-x="1022" d="M0 0v1280h768v-256h-512v-768h512v-256h-768z" />
<glyph unicode="\" horiz-adv-x="1536" d="M0 1024v256h256v-256h256v-256h256v-256h256v-256h256v-256h-256v256h-256v256h-256v256h-256v256h-256z" />
<glyph unicode="]" horiz-adv-x="1022" d="M0 0v256h512v768h-512v256h768v-1280h-768z" />
<glyph unicode="^" horiz-adv-x="1024" d="M0 768v256h256v256h256v-256h256v-256h-256v256h-256v-256h-256z" />
<glyph unicode="_" horiz-adv-x="1280" d="M0 0v256h1280v-256h-1280z" />
<glyph unicode="a" d="M0 0v768h256v256h256v256h256v-256h256v-256h256v-768h-256v512h-768v-512h-256zM512 768h256v256h-256v-256z" />
<glyph unicode="b" d="M0 0v1280h1024v-256h256v-256h-256v-256h256v-256h-256v-256h-1024zM256 256h768v256h-768v-256zM256 768h768v256h-768v-256z" />
<glyph unicode="c" d="M0 256v768h256v256h768v-256h256v-256h-256v256h-768v-768h768v256h256v-256h-256v-256h-768v256h-256z" />
<glyph unicode="d" d="M0 0v1280h1024v-256h256v-768h-256v-256h-1024zM256 256h768v768h-768v-768z" />
<glyph unicode="e" d="M0 0v1280h1280v-256h-1024v-256h512v-256h-512v-256h1024v-256h-1280z" />
<glyph unicode="f" d="M0 0v1280h1280v-256h-1024v-256h512v-256h-512v-512h-256z" />
<glyph unicode="g" d="M0 256v768h256v256h768v-256h256v-768h-256v-256h-768v256h-256zM256 256h768v256h-512v256h512v256h-768v-768z" />
<glyph unicode="h" d="M0 0v1280h256v-512h768v512h256v-1280h-256v512h-768v-512h-256z" />
<glyph unicode="i" d="M0 0v256h512v768h-512v256h1280v-256h-512v-768h512v-256h-1280z" />
<glyph unicode="j" d="M0 256v512h256v-512h768v1024h256v-1024h-256v-256h-768v256h-256z" />
<glyph unicode="k" d="M0 0v1280h256v-512h512v256h256v256h256v-256h-256v-256h-256v-256h256v-256h256v-256h-256v256h-256v256h-512v-512h-256z" />
<glyph unicode="l" d="M0 0v1280h256v-1024h1024v-256h-1280z" />
<glyph unicode="m" d="M0 0v1280h256v-256h256v-256h256v256h256v256h256v-1280h-256v768h-256v-256h-256v256h-256v-768h-256z" />
<glyph unicode="n" d="M0 0v1280h256v-256h256v-256h256v-256h256v768h256v-1280h-256v256h-256v256h-256v256h-256v-768h-256z" />
<glyph unicode="o" d="M0 256v768h256v256h768v-256h256v-768h-256v-256h-768v256h-256zM256 256h768v768h-768v-768z" />
<glyph unicode="p" d="M0 0v1280h1024v-256h256v-256h-256v-256h-768v-512h-256zM256 768h768v256h-768v-256z" />
<glyph unicode="q" d="M0 256v768h256v256h768v-256h256v-1024h-1024v256h-256zM256 256h512v256h256v512h-768v-768z" />
<glyph unicode="r" d="M0 0v1280h1024v-256h256v-256h-256v-512h256v-256h-256v256h-256v256h-512v-512h-256zM256 768h768v256h-768v-256z" />
<glyph unicode="s" horiz-adv-x="1536" d="M0 256v256h256v256h-256v256h256v256h768v-256h256v-256h-256v-256h256v-256h-256v-256h-768v256h-256zM256 256h768v256h-768v-256zM256 768h768v256h-768v-256z" />
<glyph unicode="t" d="M0 1024v256h1280v-256h-512v-1024h-256v1024h-512z" />
<glyph unicode="u" d="M0 256v1024h256v-1024h768v1024h256v-1024h-256v-256h-768v256h-256z" />
<glyph unicode="v" d="M0 512v768h256v-768h256v-256h256v256h256v768h256v-768h-256v-256h-256v-256h-256v256h-256v256h-256z" />
<glyph unicode="w" d="M0 0v1280h256v-768h256v256h256v-256h256v768h256v-1280h-256v256h-256v256h-256v-256h-256v-256h-256z" />
<glyph unicode="x" horiz-adv-x="1536" d="M0 0v256h256v256h256v256h-256v256h-256v256h256v-256h256v-256h256v256h256v256h256v-256h-256v-256h-256v-256h256v-256h256v-256h-256v256h-256v256h-256v-256h-256v-256h-256z" />
<glyph unicode="y" d="M0 1024v256h256v-256h256v-256h256v256h256v256h256v-256h-256v-256h-256v-768h-256v768h-256v256h-256z" />
<glyph unicode="z" horiz-adv-x="1536" d="M0 0v256h256v256h256v256h256v256h-768v256h1280v-256h-256v-256h-256v-256h-256v-256h768v-256h-1280z" />
<glyph unicode="{" horiz-adv-x="1022" d="M0 512v256h256v512h512v-256h-256v-768h256v-256h-512v512h-256z" />
<glyph unicode="|" horiz-adv-x="510" d="M0 0v1280h256v-1280h-256z" />
<glyph unicode="}" horiz-adv-x="1022" d="M0 0v256h256v768h-256v256h512v-512h256v-256h-256v-512h-512z" />
<glyph unicode="~" horiz-adv-x="1536" d="M0 512v256h256v256h256v-256h256v-256h256v256h256v-256h-256v-256h-256v256h-256v256h-256v-256h-256z" />
<glyph unicode="&#xad;" horiz-adv-x="1536" d="M0 512v256h1280v-256h-1280z" />
<glyph unicode="&#x2000;" horiz-adv-x="682" />
<glyph unicode="&#x2001;" horiz-adv-x="1365" />
<glyph unicode="&#x2002;" horiz-adv-x="682" />
<glyph unicode="&#x2003;" horiz-adv-x="1365" />
<glyph unicode="&#x2004;" horiz-adv-x="455" />
<glyph unicode="&#x2005;" horiz-adv-x="341" />
<glyph unicode="&#x2006;" horiz-adv-x="227" />
<glyph unicode="&#x2007;" horiz-adv-x="227" />
<glyph unicode="&#x2008;" horiz-adv-x="170" />
<glyph unicode="&#x2009;" horiz-adv-x="273" />
<glyph unicode="&#x200a;" horiz-adv-x="75" />
<glyph unicode="&#x2010;" horiz-adv-x="1536" d="M0 512v256h1280v-256h-1280z" />
<glyph unicode="&#x2011;" horiz-adv-x="1536" d="M0 512v256h1280v-256h-1280z" />
<glyph unicode="&#x2012;" horiz-adv-x="1536" d="M0 512v256h1280v-256h-1280z" />
<glyph unicode="&#x2013;" horiz-adv-x="1280" d="M0 512v256h1024v-256h-1024z" />
<glyph unicode="&#x2014;" horiz-adv-x="2304" d="M0 512v256h2048v-256h-2048z" />
<glyph unicode="&#x2018;" horiz-adv-x="510" d="M0 768v512h256v-512h-256z" />
<glyph unicode="&#x2019;" horiz-adv-x="510" d="M0 768v512h256v-512h-256z" />
<glyph unicode="&#x201c;" horiz-adv-x="1022" d="M0 768v512h256v-512h-256zM512 768v512h256v-512h-256z" />
<glyph unicode="&#x201d;" horiz-adv-x="1022" d="M0 768v512h256v-512h-256zM512 768v512h256v-512h-256z" />
<glyph unicode="&#x202f;" horiz-adv-x="273" />
<glyph unicode="&#x205f;" horiz-adv-x="341" />
<glyph unicode="&#x25fc;" horiz-adv-x="1280" d="M0 0v1280h1280v-1280h-1280z" />
</font>
</defs>
</svg>
